<?xml version="1.0" encoding="UTF-8"?>
<svg xmlns="http://www.w3.org/2000/svg" viewBox="0 0 800 450" width="800" height="450">
  <style>
    .title { font-family: -apple-system, BlinkMacSystemFont, "Segoe UI", Roboto, sans-serif; font-size: 15px; font-weight: 700; fill: #111827; }
    .subtitle { font-family: -apple-system, BlinkMacSystemFont, "Segoe UI", Roboto, sans-serif; font-size: 11px; fill: #4B5563; }
    .axis { stroke: #9CA3AF; stroke-width: 1.5; }
    .grid { stroke: #E5E7EB; stroke-width: 1; stroke-dasharray: 4,4; }
    .label { font-family: -apple-system, BlinkMacSystemFont, "Segoe UI", Roboto, sans-serif; font-size: 11px; fill: #374151; }
  </style>
  <rect width="800" height="450" fill="#FFFFFF"/>
  <text x="400" y="30" text-anchor="middle" class="title">Chow Risk-Coverage Pareto Frontier under SBMI Release Gating</text>
  <text x="400" y="48" text-anchor="middle" class="subtitle">False-Clear Safety Risk R_FC(f, g) vs. Automatic Coverage &#934;(g)</text>

  <line x1="100" y1="380" x2="720" y2="380" class="axis"/>
  <line x1="100" y1="80" x2="100" y2="380" class="axis"/>
  <line x1="100" y1="300" x2="720" y2="300" class="grid"/>
  <line x1="100" y1="220" x2="720" y2="220" class="grid"/>
  <line x1="100" y1="140" x2="720" y2="140" class="grid"/>

  <text x="90" y="384" text-anchor="end" class="label">0.0%</text>
  <text x="90" y="304" text-anchor="end" class="label">2.0%</text>
  <text x="90" y="224" text-anchor="end" class="label">4.0%</text>
  <text x="90" y="144" text-anchor="end" class="label">6.0%</text>

  <text x="160" y="400" text-anchor="middle" class="label">90%</text>
  <text x="320" y="400" text-anchor="middle" class="label">93%</text>
  <text x="480" y="400" text-anchor="middle" class="label">96%</text>
  <text x="640" y="400" text-anchor="middle" class="label">100%</text>
  <text x="400" y="430" text-anchor="middle" class="label" font-weight="bold">Automatic Coverage &#934;(g)</text>

  <!-- Pareto Frontier Curve -->
  <path d="M 640 108 Q 450 200 288 364" fill="none" stroke="#2563EB" stroke-width="3"/>

  <!-- Operating Points -->
  <circle cx="640" cy="108" r="6" fill="#DC2626"/>
  <text x="630" y="98" text-anchor="end" class="label" font-weight="bold">Legacy Unbound (6.8% Risk, 100% Cov)</text>

  <circle cx="486" cy="252" r="6" fill="#D97706"/>
  <text x="496" y="247" class="label">Confidence Threshold (3.2% Risk, 96.2% Cov)</text>

  <circle cx="432" cy="264" r="6" fill="#EAB308"/>
  <text x="442" y="280" class="label">CrossDDI (2.9% Risk, 95.1% Cov)</text>

  <circle cx="288" cy="364" r="7" fill="#059669"/>
  <text x="278" y="350" text-anchor="end" class="label" font-weight="bold" fill="#059669">CareGuard-VN SBMI (0.4% Risk, 92.4% Cov)</text>
</svg>